<svg width="277" height="43" viewBox="0 0 277 43" fill="none" xmlns="http://www.w3.org/2000/svg">
<path d="M60.3415 10.9696C62.0449 10.9696 63.5382 11.2146 64.8215 11.7046C66.1282 12.1713 66.7815 12.8129 66.7815 13.6296C66.7815 14.4463 66.4665 15.4613 65.8365 16.6746C65.2299 17.8646 64.7165 18.4596 64.2965 18.4596C64.1799 18.4596 64.0399 18.4013 63.8765 18.2846C63.7365 18.1446 63.3865 18.0046 62.8265 17.8646C62.2899 17.7013 61.8232 17.6196 61.4265 17.6196C60.0732 17.6196 58.9765 18.0979 58.1365 19.0546C57.3199 20.0113 56.9115 21.4813 56.9115 23.4646C56.9115 25.4246 57.3315 26.8829 58.1715 27.8396C59.0349 28.7963 60.1199 29.2746 61.4265 29.2746C61.9632 29.2746 62.5582 29.2046 63.2115 29.0646C63.8882 28.9013 64.3665 28.6796 64.6465 28.3996C64.6932 28.3529 64.7865 28.3296 64.9265 28.3296C65.0665 28.3296 65.3232 28.5979 65.6965 29.1346C66.0932 29.6479 66.4549 30.3363 66.7815 31.1996C67.1082 32.0396 67.2715 32.6929 67.2715 33.1596C67.2715 34.0696 66.5715 34.7929 65.1715 35.3296C63.7715 35.8663 62.1149 36.1346 60.2015 36.1346C57.1215 36.1346 54.5899 35.0496 52.6065 32.8796C50.6232 30.7096 49.6315 27.6529 49.6315 23.7096C49.6315 19.7429 50.6465 16.6279 52.6765 14.3646C54.7299 12.1013 57.2849 10.9696 60.3415 10.9696ZM75.6207 35.5396C75.6207 35.7496 74.6407 35.8546 72.6807 35.8546C70.744 35.8546 69.7757 35.6913 69.7757 35.3646V11.3896C69.7757 11.2263 70.1374 11.1096 70.8607 11.0396C71.584 10.9696 72.1907 10.9346 72.6807 10.9346C74.6407 10.9346 75.6207 11.1446 75.6207 11.5646V18.5646C76.9274 18.1679 77.919 17.9696 78.5957 17.9696C80.369 17.9696 81.769 18.4479 82.7957 19.4046C83.8224 20.3379 84.3357 22.0879 84.3357 24.6546V35.5046C84.3357 35.7146 83.4257 35.8196 81.6057 35.8196C79.5524 35.7496 78.5257 35.6329 78.5257 35.4696V25.1796C78.5257 24.0363 78.1524 23.4646 77.4057 23.4646C76.8924 23.4646 76.2974 23.7096 75.6207 24.1996V35.5396ZM93.7149 35.5746C93.7149 35.7613 92.6415 35.8546 90.4949 35.8546C88.3715 35.8546 87.3099 35.7729 87.3099 35.6096V18.4246C87.3099 18.2613 88.3715 18.1796 90.4949 18.1796C92.6415 18.1796 93.7149 18.2496 93.7149 18.3896V35.5746ZM93.7149 16.3246C93.7149 16.4879 92.6415 16.5696 90.4949 16.5696C88.3715 16.5696 87.3099 16.4996 87.3099 16.3596V11.3196C87.3099 11.0863 88.3715 10.9696 90.4949 10.9696C92.6415 10.9696 93.7149 11.0396 93.7149 11.1796V16.3246ZM104.195 35.5746C104.195 35.7379 103.355 35.8196 101.675 35.8196C99.3418 35.7496 98.1752 35.6213 98.1752 35.4346V24.0946H97.2652C96.6585 24.0946 96.2618 23.5813 96.0752 22.5546C96.0285 22.2513 96.0052 21.9479 96.0052 21.6446C96.0052 20.9213 96.1452 20.1979 96.4252 19.4746C96.8452 18.4479 97.4985 17.9346 98.3852 17.9346C99.2718 17.9346 100.065 18.1446 100.765 18.5646C101.465 18.9846 101.932 19.4046 102.165 19.8246C103.635 18.5646 105.385 17.9346 107.415 17.9346C109.445 17.9346 110.915 18.4829 111.825 19.5796C112.735 20.6763 113.19 22.4729 113.19 24.9696V35.4696C113.19 35.7496 112.187 35.8896 110.18 35.8896C108.197 35.8896 107.205 35.7496 107.205 35.4696V25.3546C107.205 24.1879 106.797 23.6046 105.98 23.6046C105.747 23.6046 105.42 23.7096 105 23.9196C104.58 24.1063 104.312 24.2463 104.195 24.3396V35.5746ZM122.598 35.7846C120.334 35.7846 118.584 35.0613 117.348 33.6146C116.111 32.1446 115.493 29.9863 115.493 27.1396C115.493 24.2696 116.298 22.0296 117.908 20.4196C119.541 18.7863 121.699 17.9696 124.383 17.9696C127.089 17.9696 129.318 18.5646 131.068 19.7546V37.1846C131.068 38.9113 130.368 40.2296 128.968 41.1396C127.568 42.0729 125.771 42.5396 123.578 42.5396C121.384 42.5396 119.424 42.2596 117.698 41.6996C117.464 41.1396 117.348 40.6379 117.348 40.1946C117.348 38.7013 117.593 37.6046 118.083 36.9046C119.646 37.5813 121.314 37.9196 123.088 37.9196C124.371 37.9196 125.013 37.4646 125.013 36.5546V35.5046C124.009 35.6913 123.204 35.7846 122.598 35.7846ZM124.208 23.6746C122.644 23.6746 121.863 24.8529 121.863 27.2096C121.863 28.6796 122.166 29.6363 122.773 30.0796C123.169 30.3829 123.566 30.5346 123.963 30.5346C124.359 30.5346 124.709 30.4996 125.013 30.4296V23.7796C124.733 23.7096 124.464 23.6746 124.208 23.6746ZM134.029 18.4946C134.029 18.2379 135.033 18.1096 137.039 18.1096C139.046 18.1096 140.049 18.2379 140.049 18.4946V28.7146C140.049 29.8813 140.423 30.4646 141.169 30.4646C141.729 30.4646 142.359 30.2196 143.059 29.7296V18.4946C143.059 18.2613 144.051 18.1446 146.034 18.1446C148.018 18.1446 149.009 18.2613 149.009 18.4946V29.9746H149.919C150.713 29.9746 151.109 30.7329 151.109 32.2496C151.109 33.0196 150.946 33.8013 150.619 34.5946C150.153 35.6213 149.523 36.1346 148.729 36.1346C147.166 36.1346 146.011 35.4929 145.264 34.2096L145.229 34.2446C143.806 35.5046 142.278 36.1346 140.644 36.1346C138.381 36.1346 136.713 35.5746 135.639 34.4546C134.566 33.3113 134.029 31.4329 134.029 28.8196V18.4946Z" fill="white"/>
<path d="M26.9881 16.9436L28.9926 11.6105C29.1763 11.1218 29.4528 10.655 29.8138 10.2241L30.7118 9.15251C31.6733 8.00493 30.3516 6.55382 28.5584 6.78853L28.1593 6.84081C26.2756 7.08735 24.5942 7.86647 23.4687 9.01427L21.2607 11.2659L18.1187 14.2658L25.2952 22.9631L26.9881 16.9436Z" fill="white"/>
<path d="M20.3857 35.3469C20.3461 35.2608 20.2659 35.188 20.1589 35.1432L19.5625 34.8895C17.7248 34.1072 16.1426 33.0329 14.931 31.7432L10.9593 27.5189L7.18086 23.7726C6.76874 23.3645 6.5706 22.8873 6.5706 22.4137C6.5706 22.288 6.58576 22.1625 6.61379 22.0385C6.30361 22.1136 6.00422 22.2264 5.72852 22.3796C4.37643 23.1309 4.10111 24.5535 5.1134 25.5571L8.75447 29.1665L13.0058 33.697C13.9352 34.6875 15.1556 35.5086 16.5793 36.1017L17.9141 36.6577L18.516 37.9812C18.6508 38.2775 19.0251 38.4769 19.4465 38.4769H21.9348L20.3857 35.3469Z" fill="#C4C4C4" fill-opacity="0.24"/>
<path d="M29.4996 7.32369L29.5004 7.32377C29.0547 6.89141 28.3121 6.62531 27.4645 6.73626L27.0653 6.78847C25.1817 7.03494 23.5004 7.81406 22.3748 8.96179L20.1667 11.2136L17.0246 14.2135L24.2012 22.9108L25.8943 16.8913L26.5499 15.1469C25.7374 14.3351 24.9117 13.5102 24.097 12.6964C23.3668 11.9669 23.3602 10.9699 24.0807 10.2352L24.805 9.49649C25.9312 8.34803 27.6144 7.56899 29.4996 7.32369Z" fill="#C4C4C4" fill-opacity="0.24"/>
<path d="M34.8722 29.2713C35.1744 27.443 34.5237 25.598 33.053 24.1142C33.053 24.1142 16.2988 7.37486 14.9174 6.00258C13.9037 4.99559 11.982 4.79015 10.6142 5.5503L10.5524 5.58464C9.23526 6.3164 8.96748 7.70236 9.9545 8.67935L16.6717 15.3286C15.6376 14.4052 13.7982 14.2363 12.4886 14.9641C11.1365 15.7154 10.8612 17.138 11.8735 18.1415L12.5445 18.8067C11.5322 17.8033 9.61549 17.5989 8.2635 18.3502C6.9114 19.1015 6.63609 20.5241 7.64838 21.5276L8.91567 22.7838C7.90328 21.7804 5.9867 21.576 4.63471 22.3273C3.28261 23.0787 3.0073 24.5012 4.01959 25.5048L7.66066 29.1142L11.912 33.6447C12.8414 34.6352 14.0618 35.4563 15.4855 36.0494L16.8203 36.6054L17.4222 37.9289C17.5569 38.2252 17.9313 38.4247 18.3527 38.4247H34.2552C34.5922 38.4247 34.8493 38.2011 34.7964 37.9541L34.0291 34.3707L34.8722 29.2713Z" fill="white"/>
<path d="M21.1572 19.7705C22.4081 19.0271 22.6383 17.6809 21.677 16.7292L12.199 7.34547C11.5335 6.6868 11.4393 5.84209 11.8524 5.13708C11.4178 5.20275 10.9947 5.33922 10.6143 5.55062L10.5529 5.58444C9.23526 6.31679 8.96777 7.70283 9.9545 8.6793L21.1572 19.7705Z" fill="#C4C4C4" fill-opacity="0.24"/>
<path d="M20.2935 5.41073L18.4894 4.07175C17.8193 3.5744 17.8193 2.76807 18.4894 2.27072L18.4966 2.26535C19.1667 1.768 20.2531 1.768 20.9232 2.26535C20.9651 2.29645 21.033 2.29645 21.075 2.26535C21.7451 1.768 22.8314 1.768 23.5015 2.26535C24.1745 2.76484 24.1712 3.57528 23.4943 4.07175L21.6643 5.41382C21.2841 5.69279 20.6715 5.69139 20.2935 5.41073Z" fill="white"/>
<path d="M12.0345 18.3014L12.5412 18.8036C12.5401 18.8025 12.539 18.8016 12.5379 18.8006L13.2396 19.4962L14.5643 18.7339C15.187 18.3756 15.3077 17.7128 14.8355 17.2445L14.1553 16.5701C13.7432 16.162 13.545 15.6848 13.545 15.2113C13.545 14.9922 13.5874 14.7729 13.6716 14.5627C13.2552 14.6295 12.8521 14.7617 12.4888 14.9639C11.1371 15.715 10.8614 17.1369 11.8724 18.1405L12.0345 18.3014Z" fill="#C4C4C4" fill-opacity="0.24"/>
<path d="M8.89981 22.7684L10.2204 22.0084C10.8431 21.65 10.9638 20.9873 10.4916 20.519C10.0795 20.1109 9.38663 19.1436 9.38663 18.67C9.38663 18.4204 9.44291 18.1702 9.55178 17.9333C9.09854 17.9938 8.65719 18.1312 8.26339 18.3497C6.9111 19.1012 6.63569 20.524 7.64817 21.5277L8.89981 22.7684Z" fill="#C4C4C4" fill-opacity="0.24"/>
</svg>
