<svg width="325" height="65" viewBox="0 0 325 65" fill="none" xmlns="http://www.w3.org/2000/svg">
<path d="M73.8 16.55C76.2333 16.55 78.3667 16.9 80.2 17.6C82.0667 18.2667 83 19.1833 83 20.35C83 21.5167 82.55 22.9667 81.65 24.7C80.7833 26.4 80.05 27.25 79.45 27.25C79.2833 27.25 79.0833 27.1667 78.85 27C78.65 26.8 78.15 26.6 77.35 26.4C76.5833 26.1667 75.9167 26.05 75.35 26.05C73.4167 26.05 71.85 26.7333 70.65 28.1C69.4833 29.4667 68.9 31.5667 68.9 34.4C68.9 37.2 69.5 39.2833 70.7 40.65C71.9333 42.0167 73.4833 42.7 75.35 42.7C76.1167 42.7 76.9667 42.6 77.9 42.4C78.8667 42.1667 79.55 41.85 79.95 41.45C80.0167 41.3833 80.15 41.35 80.35 41.35C80.55 41.35 80.9167 41.7333 81.45 42.5C82.0167 43.2333 82.5333 44.2167 83 45.45C83.4667 46.65 83.7 47.5833 83.7 48.25C83.7 49.55 82.7 50.5833 80.7 51.35C78.7 52.1167 76.3333 52.5 73.6 52.5C69.2 52.5 65.5833 50.95 62.75 47.85C59.9167 44.75 58.5 40.3833 58.5 34.75C58.5 29.0833 59.95 24.6333 62.85 21.4C65.7833 18.1667 69.4333 16.55 73.8 16.55ZM179.068 27.3C179.068 26.9333 180.502 26.75 183.368 26.75C186.235 26.75 187.668 26.9333 187.668 27.3V41.9C187.668 43.5667 188.202 44.4 189.268 44.4C190.068 44.4 190.968 44.05 191.968 43.35V27.3C191.968 26.9667 193.385 26.8 196.218 26.8C199.052 26.8 200.468 26.9667 200.468 27.3V43.7H201.768C202.902 43.7 203.468 44.7833 203.468 46.95C203.468 48.05 203.235 49.1667 202.768 50.3C202.102 51.7667 201.202 52.5 200.068 52.5C197.835 52.5 196.185 51.5833 195.118 49.75L195.068 49.8C193.035 51.6 190.852 52.5 188.518 52.5C185.285 52.5 182.902 51.7 181.368 50.1C179.835 48.4667 179.068 45.7833 179.068 42.05V27.3Z" fill="#C4D9E7"/>
<path d="M95.6273 51.65C95.6273 51.95 94.2273 52.1 91.4273 52.1C88.6607 52.1 87.2773 51.8667 87.2773 51.4V17.15C87.2773 16.9167 87.794 16.75 88.8273 16.65C89.8607 16.55 90.7273 16.5 91.4273 16.5C94.2273 16.5 95.6273 16.8 95.6273 17.4V27.4C97.494 26.8333 98.9107 26.55 99.8773 26.55C102.411 26.55 104.411 27.2333 105.877 28.6C107.344 29.9333 108.077 32.4333 108.077 36.1V51.6C108.077 51.9 106.777 52.05 104.177 52.05C101.244 51.95 99.7773 51.7833 99.7773 51.55V36.85C99.7773 35.2167 99.244 34.4 98.1773 34.4C97.444 34.4 96.594 34.75 95.6273 35.45V51.65Z" fill="#AAB9D8"/>
<path d="M121.476 51.7C121.476 51.9667 119.943 52.1 116.876 52.1C113.843 52.1 112.326 51.9833 112.326 51.75V27.2C112.326 26.9667 113.843 26.85 116.876 26.85C119.943 26.85 121.476 26.95 121.476 27.15V51.7ZM121.476 24.2C121.476 24.4333 119.943 24.55 116.876 24.55C113.843 24.55 112.326 24.45 112.326 24.25V17.05C112.326 16.7167 113.843 16.55 116.876 16.55C119.943 16.55 121.476 16.65 121.476 16.85V24.2Z" fill="#BEABD7"/>
<path d="M136.448 51.7C136.448 51.9333 135.248 52.05 132.848 52.05C129.515 51.95 127.848 51.7667 127.848 51.5V35.3H126.548C125.681 35.3 125.115 34.5667 124.848 33.1C124.781 32.6667 124.748 32.2333 124.748 31.8C124.748 30.7667 124.948 29.7333 125.348 28.7C125.948 27.2333 126.881 26.5 128.148 26.5C129.415 26.5 130.548 26.8 131.548 27.4C132.548 28 133.215 28.6 133.548 29.2C135.648 27.4 138.148 26.5 141.048 26.5C143.948 26.5 146.048 27.2833 147.348 28.85C148.648 30.4167 149.298 32.9833 149.298 36.55V51.55C149.298 51.95 147.865 52.15 144.998 52.15C142.165 52.15 140.748 51.95 140.748 51.55V37.1C140.748 35.4333 140.165 34.6 138.998 34.6C138.665 34.6 138.198 34.75 137.598 35.05C136.998 35.3167 136.615 35.5167 136.448 35.65V51.7Z" fill="#BFD0B5"/>
<path d="M162.737 52C159.504 52 157.004 50.9667 155.237 48.9C153.47 46.8 152.587 43.7167 152.587 39.65C152.587 35.55 153.737 32.35 156.037 30.05C158.37 27.7167 161.454 26.55 165.287 26.55C169.154 26.55 172.337 27.4 174.837 29.1V54C174.837 56.4667 173.837 58.35 171.837 59.65C169.837 60.9833 167.27 61.65 164.137 61.65C161.004 61.65 158.204 61.25 155.737 60.45C155.404 59.65 155.237 58.9333 155.237 58.3C155.237 56.1667 155.587 54.6 156.287 53.6C158.52 54.5667 160.904 55.05 163.437 55.05C165.27 55.05 166.187 54.4 166.187 53.1V51.6C164.754 51.8667 163.604 52 162.737 52ZM165.037 34.7C162.804 34.7 161.687 36.3833 161.687 39.75C161.687 41.85 162.12 43.2167 162.987 43.85C163.554 44.2833 164.12 44.5 164.687 44.5C165.254 44.5 165.754 44.45 166.187 44.35V34.85C165.787 34.75 165.404 34.7 165.037 34.7Z" fill="#ECBEBE"/>
<path d="M31.6647 26.8618L34.0166 18.4069C34.2321 17.6321 34.5565 16.8921 34.9801 16.209L36.0336 14.51C37.1618 12.6907 35.611 10.3902 33.5071 10.7623L33.0388 10.8452C30.8287 11.236 28.8559 12.4712 27.5354 14.2909L24.9448 17.8605L21.2583 22.6164L29.6784 36.4048L31.6647 26.8618Z" fill="#FFEFE7"/>
<path d="M23.9183 56.0377C23.8718 55.9013 23.7776 55.7859 23.6521 55.7148L22.9523 55.3126C20.7962 54.0723 18.9399 52.3692 17.5183 50.3245L12.8584 43.6275L8.42516 37.6882C7.94162 37.0412 7.70915 36.2847 7.70915 35.534C7.70915 35.3346 7.72693 35.1356 7.75983 34.9391C7.39589 35.0581 7.04463 35.2369 6.72114 35.4799C5.13476 36.671 4.81174 38.9263 5.99944 40.5173L10.2715 46.2395L15.2595 53.4221C16.3499 54.9923 17.7818 56.2942 19.4522 57.2344L21.0183 58.1158L21.7245 60.2141C21.8826 60.6839 22.3219 61 22.8162 61H25.7357L23.9183 56.0377Z" fill="#FFE0D1"/>
<path d="M34.6114 11.6107L34.6123 11.6108C34.0895 10.9253 33.2182 10.5035 32.2237 10.6794L31.7554 10.7621C29.5454 11.1529 27.5726 12.3881 26.2521 14.2076L23.6613 17.7776L19.9747 22.5335L28.3949 36.3219L30.3813 26.7788L31.1506 24.0133C30.1973 22.7263 29.2285 21.4185 28.2727 20.1283C27.4159 18.9719 27.4081 17.3912 28.2535 16.2264L29.1033 15.0553C30.4247 13.2346 32.3995 11.9995 34.6114 11.6107Z" fill="#FFE0D1"/>
<path d="M40.915 46.4057C41.2696 43.5071 40.5061 40.5821 38.7806 38.2298C38.7806 38.2298 19.1231 11.6918 17.5023 9.5162C16.313 7.91976 14.0583 7.59406 12.4535 8.79917L12.3809 8.85361C10.8356 10.0137 10.5214 12.211 11.6795 13.7599L19.5606 24.3013C18.3473 22.8375 16.1892 22.5696 14.6527 23.7234C13.0663 24.9146 12.7433 27.1699 13.931 28.7608L14.7182 29.8154C13.5305 28.2246 11.2817 27.9005 9.69543 29.0917C8.10904 30.2828 7.78602 32.5381 8.97372 34.1291L10.4606 36.1206C9.27279 34.5298 7.02409 34.2058 5.43782 35.3969C3.85143 36.588 3.52841 38.8433 4.71611 40.4343L8.98813 46.1566L13.9762 53.3391C15.0666 54.9093 16.4985 56.2112 18.1689 57.1515L19.735 58.0328L20.4412 60.1311C20.5993 60.6009 21.0385 60.9171 21.5329 60.9171H40.1911C40.5865 60.9171 40.8882 60.5626 40.8261 60.171L39.9258 54.49L40.915 46.4057Z" fill="#FFEFE7"/>
<path d="M24.8234 31.3434C26.2911 30.1647 26.5611 28.0305 25.4333 26.5218L14.3129 11.6451C13.532 10.6009 13.4216 9.26173 13.9062 8.14404C13.3964 8.24814 12.8999 8.4645 12.4536 8.79964L12.3815 8.85326C10.8356 10.0143 10.5217 12.2117 11.6794 13.7598L24.8234 31.3434Z" fill="#FFE0D1"/>
<path d="M23.8101 8.57794L21.6933 6.45518C20.9071 5.66669 20.9071 4.38837 21.6933 3.59988L21.7018 3.59137C22.488 2.80288 23.7626 2.80288 24.5489 3.59137C24.598 3.64068 24.6778 3.64068 24.7269 3.59137C25.5132 2.80288 26.7878 2.80288 27.574 3.59137C28.3636 4.38324 28.3598 5.66809 27.5655 6.45518L25.4184 8.58284C24.9723 9.02511 24.2536 9.02289 23.8101 8.57794Z" fill="#E5827F"/>
<path d="M14.1199 29.0144L14.7143 29.8105C14.7131 29.8088 14.7118 29.8073 14.7105 29.8057L15.5338 30.9086L17.088 29.7001C17.8186 29.1319 17.9602 28.0811 17.4062 27.3388L16.6082 26.2696C16.1246 25.6226 15.8922 24.8661 15.8922 24.1154C15.8922 23.7681 15.9419 23.4204 16.0406 23.0871C15.552 23.1931 15.0791 23.4025 14.6528 23.7231C13.0669 24.914 12.7434 27.1681 13.9296 28.7592L14.1199 29.0144Z" fill="#FFE0D1"/>
<path d="M10.442 36.0962L11.9914 34.8913C12.7221 34.3232 12.8636 33.2724 12.3096 32.5301C11.8261 31.8831 11.0131 30.3495 11.0131 29.5988C11.0131 29.203 11.0792 28.8063 11.2069 28.4308C10.6751 28.5267 10.1573 28.7445 9.69527 29.091C8.10864 30.2823 7.78551 32.538 8.97344 34.1292L10.442 36.0962Z" fill="#FFE0D1"/>
</svg>
