<svg width="227" height="54" viewBox="0 0 227 54" fill="none" xmlns="http://www.w3.org/2000/svg">
<path d="M2 51.1071L19 2" stroke="#C4D9E7" stroke-width="4" stroke-linecap="round" stroke-linejoin="round"/>
<path d="M10 51.1071L27 2" stroke="#C4D9E7" stroke-width="4" stroke-linecap="round" stroke-linejoin="round"/>
<path d="M2 51.1071L19 2" stroke="#C4D9E7" stroke-width="4" stroke-linecap="round" stroke-linejoin="round"/>
<path d="M10 51.1071L27 2" stroke="#C4D9E7" stroke-width="4" stroke-linecap="round" stroke-linejoin="round"/>
<path d="M19 52L36 2.89288" stroke="#C4D9E7" stroke-width="4" stroke-linecap="round" stroke-linejoin="round"/>
<path d="M28 52L45 2.89288" stroke="#C4D9E7" stroke-width="4" stroke-linecap="round" stroke-linejoin="round"/>
<path d="M37 52L54 2.89288" stroke="#C4D9E7" stroke-width="4" stroke-linecap="round" stroke-linejoin="round"/>
<path d="M46 52L63 2.89288" stroke="#C4D9E7" stroke-width="4" stroke-linecap="round" stroke-linejoin="round"/>
<path d="M55 52L72 2.89288" stroke="#C4D9E7" stroke-width="4" stroke-linecap="round" stroke-linejoin="round"/>
<path d="M64 52L81 2.89288" stroke="#C4D9E7" stroke-width="4" stroke-linecap="round" stroke-linejoin="round"/>
<path d="M73 52L90 2.89288" stroke="#C4D9E7" stroke-width="4" stroke-linecap="round" stroke-linejoin="round"/>
<path d="M82 52L99 2.89288" stroke="#C4D9E7" stroke-width="4" stroke-linecap="round" stroke-linejoin="round"/>
<path d="M91 52L108 2.89288" stroke="#C4D9E7" stroke-width="4" stroke-linecap="round" stroke-linejoin="round"/>
<path d="M100 52L117 2.89288" stroke="#C4D9E7" stroke-width="4" stroke-linecap="round" stroke-linejoin="round"/>
<path d="M109 52L126 2.89288" stroke="#C4D9E7" stroke-width="4" stroke-linecap="round" stroke-linejoin="round"/>
<path d="M118 52L135 2.89288" stroke="#C4D9E7" stroke-width="4" stroke-linecap="round" stroke-linejoin="round"/>
<path d="M127 52L144 2.89288" stroke="#C4D9E7" stroke-width="4" stroke-linecap="round" stroke-linejoin="round"/>
<path d="M136 52L153 2.89288" stroke="#C4D9E7" stroke-width="4" stroke-linecap="round" stroke-linejoin="round"/>
<path d="M145 52L162 2.89288" stroke="#C4D9E7" stroke-width="4" stroke-linecap="round" stroke-linejoin="round"/>
<path d="M154 52L171 2.89288" stroke="#C4D9E7" stroke-width="4" stroke-linecap="round" stroke-linejoin="round"/>
<path d="M163 52L180 2.89288" stroke="#C4D9E7" stroke-width="4" stroke-linecap="round" stroke-linejoin="round"/>
<path d="M172 52L189 2.89288" stroke="#C4D9E7" stroke-width="4" stroke-linecap="round" stroke-linejoin="round"/>
<path d="M181 52L198 2.89288" stroke="#C4D9E7" stroke-width="4" stroke-linecap="round" stroke-linejoin="round"/>
<path d="M190 52L207 2.89288" stroke="#C4D9E7" stroke-width="4" stroke-linecap="round" stroke-linejoin="round"/>
<path d="M199 52L216 2.89288" stroke="#C4D9E7" stroke-width="4" stroke-linecap="round" stroke-linejoin="round"/>
<path d="M208 52L225 2.89288" stroke="#C4D9E7" stroke-width="4" stroke-linecap="round" stroke-linejoin="round"/>
</svg>
